<svg xmlns="http://www.w3.org/2000/svg" xmlns:xlink="http://www.w3.org/1999/xlink" width="60" height="60" viewBox="0 0 60 60">
  <defs>
    <clipPath id="clip-icon_map_blue_ok">
      <rect width="60" height="60"/>
    </clipPath>
  </defs>
  <g id="icon_map_blue_ok" clip-path="url(#clip-icon_map_blue_ok)">
    <g id="Raggruppa_258" data-name="Raggruppa 258">
      <path id="Tracciato_12943" data-name="Tracciato 12943" d="M30,0A30,30,0,1,1,0,30,30,30,0,0,1,30,0Z" fill="#258cf8"/>
    </g>
    <g id="noun-map-7591917" transform="translate(9.055 9.059)">
      <path id="Tracciato_12947" data-name="Tracciato 12947" d="M26.245,29.827l1.623,7.616H5.985A1.038,1.038,0,0,1,4.99,36.1l1.93-6.275ZM21.105,16.2a8.908,8.908,0,0,1-1.154-5.179,6.467,6.467,0,0,1,12.911,0h0A8.92,8.92,0,0,1,31.706,16.2a65.352,65.352,0,0,1-4.927,7.264.462.462,0,0,1-.747,0A65.708,65.708,0,0,1,21.105,16.2ZM23.72,11a2.687,2.687,0,1,0,2.687-2.683A2.686,2.686,0,0,0,23.72,11Zm5.569,18.149h5.972l-.624-2.03H16.583a.339.339,0,0,1-.328-.43l1.595-7.5H15.785l-1.637,7.66a.339.339,0,0,1-.332.271H7.753l-.624,2.03H26.522a.361.361,0,0,1,.335.289l1.7,8.007h2.07l-1.672-7.887a.346.346,0,0,1,.069-.283.34.34,0,0,1,.263-.125ZM37.4,36.1l-1.93-6.275H29.7l1.619,7.618h5.087A1.038,1.038,0,0,0,37.4,36.1ZM34.429,26.44,32.5,20.165h0a1.363,1.363,0,0,0-1.323-.976H30.7c-1.082,1.6-2.265,3.135-3.373,4.689a1.137,1.137,0,0,1-1.843,0c-1.1-1.54-2.3-3.077-3.373-4.689h-3.57L17,26.44ZM15.085,19.187h-3.87a1.363,1.363,0,0,0-1.323.976l-1.93,6.275h5.581Z" transform="translate(0 -2)" fill="#fff" fill-rule="evenodd"/>
    </g>
  </g>
</svg>
